<svg width="24" height="24" fill="none" xmlns="http://www.w3.org/2000/svg"><path fill-rule="evenodd" clip-rule="evenodd" d="M2.063 12c.595-1.104 1.733-2.67 3.342-3.988C7.12 6.605 9.346 5.5 12 5.5s4.88 1.105 6.596 2.512c1.608 1.318 2.746 2.884 3.34 3.988-.594 1.104-1.732 2.67-3.34 3.988C16.879 17.395 14.654 18.5 12 18.5s-4.879-1.105-6.595-2.512C3.795 14.67 2.658 13.104 2.063 12zm-1.021.2l.014.029c.613 1.225 1.88 3.029 3.715 4.533C6.612 18.272 9.054 19.5 12 19.5c2.945 0 5.387-1.229 7.229-2.738 1.835-1.504 3.101-3.309 3.715-4.533A.518.518 0 0023 12a.497.497 0 00-.055-.229c-.614-1.225-1.88-3.029-3.715-4.533C17.388 5.728 14.946 4.5 12 4.5c-2.946 0-5.388 1.229-7.23 2.738-1.834 1.504-3.101 3.308-3.714 4.533A.524.524 0 001 12c0 .067.013.135.042.2z" fill="#121212"/><circle cx="12" cy="12" r="3.5" stroke="#121212"/></svg>