<svg width="20" height="20" fill="none" xmlns="http://www.w3.org/2000/svg"><path d="M19.45 8.5l-.098-.417h-9.07v3.839H15.7C15.137 14.594 12.527 16 10.394 16c-1.552 0-3.188-.652-4.27-1.702a6.096 6.096 0 01-1.82-4.303c0-1.617.727-3.234 1.787-4.298 1.054-1.06 2.653-1.66 4.242-1.66 1.819 0 3.122.966 3.61 1.407L16.67 2.73c-.801-.703-3-2.475-6.426-2.475-2.644 0-5.18 1.012-7.031 2.859C1.384 4.933.437 7.562.437 10c0 2.438.896 4.94 2.668 6.773 1.893 1.955 4.575 2.977 7.336 2.977 2.512 0 4.893-.984 6.59-2.77 1.669-1.758 2.532-4.191 2.532-6.741 0-1.073-.108-1.71-.113-1.74z" fill="#121212"/></svg>