<svg width="20" height="20" fill="none" xmlns="http://www.w3.org/2000/svg"><path d="M10.001 6.876A3.13 3.13 0 006.877 10 3.13 3.13 0 0010 13.124 3.13 3.13 0 0013.125 10a3.13 3.13 0 00-3.124-3.124zM19.371 10c0-1.294.012-2.576-.06-3.867-.073-1.5-.415-2.832-1.512-3.928-1.1-1.1-2.428-1.44-3.928-1.512C12.577.62 11.295.632 10.003.632 8.71.632 7.428.62 6.136.692c-1.5.074-2.831.416-3.928 1.513C1.108 3.304.77 4.633.696 6.133.624 7.426.636 8.708.636 10c0 1.291-.012 2.576.06 3.867.073 1.5.415 2.831 1.512 3.928 1.1 1.1 2.428 1.44 3.928 1.512 1.294.073 2.576.06 3.867.06 1.294 0 2.576.013 3.868-.06 1.5-.073 2.83-.415 3.928-1.512 1.099-1.099 1.439-2.428 1.512-3.928.075-1.291.06-2.573.06-3.867zm-9.37 4.807A4.8 4.8 0 015.194 10a4.8 4.8 0 014.807-4.807A4.8 4.8 0 0114.808 10a4.8 4.8 0 01-4.807 4.807zm5.004-8.688a1.121 1.121 0 01-1.123-1.123c0-.621.502-1.123 1.123-1.123a1.121 1.121 0 01.43 2.16 1.121 1.121 0 01-.43.086z" fill="rgba(255,255,255,0.8)"/></svg>