<svg width="24" height="18" fill="none" xmlns="http://www.w3.org/2000/svg"><path d="M23.062 2.133a9.175 9.175 0 01-2.607.717A4.554 4.554 0 0022.453.337c-.876.52-1.847.9-2.883 1.102a4.54 4.54 0 00-7.852 3.103c.001.356.038.703.118 1.036A12.861 12.861 0 012.48.83a4.55 4.55 0 001.41 6.066 4.433 4.433 0 01-2.062-.568v.056a4.542 4.542 0 003.643 4.454 4.57 4.57 0 01-1.196.159c-.29 0-.576-.028-.853-.085a4.545 4.545 0 004.242 3.155 9.1 9.1 0 01-6.722 1.88A12.685 12.685 0 007.888 18c8.358 0 12.924-6.923 12.924-12.928 0-.197-.005-.394-.014-.586a9.24 9.24 0 002.264-2.353z" fill="rgba(255,255,255,0.8)"/></svg>