<svg width="148" height="19" fill="none" xmlns="http://www.w3.org/2000/svg"><path d="M7.904.672c.96 0 1.776.136 2.448.408a8.307 8.307 0 011.968 1.152c.176.144.328.216.456.216.32 0 .528-.48.624-1.44h.552c-.064 1.04-.096 2.88-.096 5.52h-.552c-.176-1.04-.336-1.784-.48-2.232a3.968 3.968 0 00-.72-1.32 4.334 4.334 0 00-1.848-1.392 5.954 5.954 0 00-2.4-.48A4.02 4.02 0 005.12 2.136c-.768.688-1.368 1.672-1.8 2.952-.432 1.264-.648 2.752-.648 4.464 0 1.744.232 3.24.696 4.488.464 1.248 1.104 2.2 1.92 2.856.832.64 1.768.96 2.808.96.8 0 1.576-.152 2.328-.456.752-.304 1.344-.76 1.776-1.368.32-.448.552-.928.696-1.44.144-.512.28-1.296.408-2.352h.552c0 2.752.032 4.672.096 5.76H13.4c-.048-.512-.12-.872-.216-1.08-.08-.224-.2-.336-.36-.336-.128 0-.296.064-.504.192-.72.512-1.408.904-2.064 1.176-.656.256-1.448.384-2.376.384-1.52 0-2.856-.344-4.008-1.032-1.136-.688-2.024-1.68-2.664-2.976-.624-1.312-.936-2.872-.936-4.68 0-1.76.32-3.32.96-4.68.656-1.36 1.56-2.416 2.712-3.168C5.112 1.048 6.432.672 7.904.672zm14.747 3.216c-.576.032-1 .096-1.272.192a.864.864 0 00-.528.552c-.096.272-.144.712-.144 1.32v9.504c0 .608.048 1.048.144 1.32a.864.864 0 00.528.552c.272.08.696.12 1.272.12h1.512c1.104 0 1.96-.328 2.568-.984.624-.656 1-1.744 1.128-3.264h.552a21.36 21.36 0 00-.072 1.968c0 .832.056 1.776.168 2.832-1.04-.048-2.792-.072-5.256-.072-2.96 0-5.2.024-6.72.072v-.48c.576-.032.992-.096 1.248-.192a.863.863 0 00.552-.552c.096-.272.144-.712.144-1.32V5.952c0-.608-.048-1.048-.144-1.32a.863.863 0 00-.552-.552c-.256-.096-.672-.16-1.248-.192v-.48c.672.048 1.696.072 3.072.072 1.28 0 2.296-.024 3.048-.072v.48zm19.446 11.28c0 .832.056 1.776.168 2.832-1.04-.048-2.792-.072-5.256-.072-2.96 0-5.2.024-6.72.072v-.48c.576-.032.992-.096 1.248-.192a.863.863 0 00.552-.552c.096-.272.144-.712.144-1.32V5.952c0-.608-.048-1.048-.144-1.32a.863.863 0 00-.552-.552c-.256-.096-.672-.16-1.248-.192v-.48c1.52.048 3.76.072 6.72.072 2.24 0 3.832-.024 4.776-.072A22.58 22.58 0 0041.617 6c0 .624.024 1.12.072 1.488h-.552c-.112-1.312-.392-2.224-.84-2.736-.432-.528-1.144-.792-2.136-.792H36.41c-.576 0-1 .048-1.272.144-.256.08-.432.256-.528.528-.096.272-.144.712-.144 1.32v4.464h1.992c.512 0 .904-.128 1.176-.384.272-.272.456-.56.552-.864.096-.32.184-.72.264-1.2h.552a20.289 20.289 0 00-.072 1.776v.912c0 .624.048 1.52.144 2.688h-.552c-.096-.768-.28-1.368-.552-1.8-.272-.432-.776-.648-1.512-.648h-1.992v4.56c0 .608.048 1.048.144 1.32a.864.864 0 00.528.552c.272.08.696.12 1.272.12h1.752c.8 0 1.432-.128 1.896-.384.464-.256.816-.664 1.056-1.224.24-.576.408-1.376.504-2.4h.552a16.388 16.388 0 00-.072 1.728zM56.803 3.48c.672 0 1.208-.024 1.608-.072v.48a1.957 1.957 0 00-1.08.672c-.272.32-.584.88-.936 1.68l-5.256 11.88h-.384L45.139 5.424c-.432-.992-.984-1.504-1.656-1.536v-.48c.656.048 1.512.072 2.568.072 1.376 0 2.4-.024 3.072-.072v.48c-.592.032-1.032.112-1.32.24a.664.664 0 00-.408.648c0 .256.112.632.336 1.128l4.128 9.312 3.576-7.968c.4-.864.6-1.544.6-2.04 0-.448-.16-.768-.48-.96-.304-.208-.776-.328-1.416-.36v-.48c.48.048 1.368.072 2.664.072zM71.16 15.168c0 .832.056 1.776.168 2.832-1.04-.048-2.792-.072-5.256-.072-2.96 0-5.2.024-6.72.072v-.48c.576-.032.992-.096 1.248-.192a.863.863 0 00.552-.552c.096-.272.144-.712.144-1.32V5.952c0-.608-.048-1.048-.144-1.32a.863.863 0 00-.552-.552c-.256-.096-.672-.16-1.248-.192v-.48c1.52.048 3.76.072 6.72.072 2.24 0 3.832-.024 4.776-.072A22.58 22.58 0 0070.68 6c0 .624.024 1.12.072 1.488H70.2c-.112-1.312-.392-2.224-.84-2.736-.432-.528-1.144-.792-2.136-.792h-1.752c-.576 0-1 .048-1.272.144-.256.08-.432.256-.528.528-.096.272-.144.712-.144 1.32v4.464h1.992c.512 0 .904-.128 1.176-.384.272-.272.456-.56.552-.864.096-.32.184-.72.264-1.2h.552a20.289 20.289 0 00-.072 1.776v.912c0 .624.048 1.52.144 2.688h-.552c-.096-.768-.28-1.368-.552-1.8-.272-.432-.776-.648-1.512-.648h-1.992v4.56c0 .608.048 1.048.144 1.32a.864.864 0 00.528.552c.272.08.696.12 1.272.12h1.752c.8 0 1.432-.128 1.896-.384.464-.256.816-.664 1.056-1.224.24-.576.408-1.376.504-2.4h.552a16.388 16.388 0 00-.072 1.728zm16.625 1.824A3.497 3.497 0 0186.73 18c-.384.224-.848.336-1.392.336-1.344 0-2.168-.608-2.472-1.824l-.744-3c-.224-.896-.56-1.496-1.008-1.8-.432-.304-1.08-.456-1.944-.456h-1.368v4.2c0 .608.048 1.048.144 1.32a.864.864 0 00.528.552c.272.096.696.16 1.272.192V18a49.675 49.675 0 00-3.048-.072c-1.376 0-2.4.024-3.072.072v-.48c.576-.032.992-.096 1.248-.192a.863.863 0 00.552-.552c.096-.272.144-.712.144-1.32V5.952c0-.608-.048-1.048-.144-1.32a.863.863 0 00-.552-.552c-.256-.096-.672-.16-1.248-.192v-.48c.672.048 1.648.072 2.928.072l2.448-.024c.272-.016.584-.024.936-.024 1.792 0 3.16.336 4.104 1.008.96.672 1.44 1.544 1.44 2.616 0 .928-.376 1.776-1.128 2.544-.736.768-1.952 1.256-3.648 1.464.32.032.592.064.816.096.848.128 1.52.384 2.016.768s.848 1 1.056 1.848l.528 2.184c.128.56.264.96.408 1.2.16.224.36.336.6.336.4 0 .84-.272 1.32-.816l.336.312zM79.337 3.888c-.432 0-.76.056-.984.168-.208.112-.352.312-.432.6-.08.288-.12.72-.12 1.296v4.824h1.608c1.408 0 2.368-.296 2.88-.888.528-.608.792-1.464.792-2.568 0-1.152-.296-2.008-.888-2.568-.576-.576-1.528-.864-2.856-.864zm14.4-3.144c.705 0 1.257.08 1.657.24.416.144.84.36 1.272.648.352.224.624.336.816.336.144 0 .256-.08.336-.24.08-.176.144-.448.192-.816h.552c-.08.928-.12 2.56-.12 4.896h-.552c-.096-1.296-.472-2.384-1.128-3.264-.64-.896-1.576-1.344-2.808-1.344-.864 0-1.568.264-2.112.792-.544.512-.816 1.176-.816 1.992 0 .608.136 1.136.408 1.584.288.448.648.832 1.08 1.152.432.32 1.048.728 1.848 1.224l.696.432c1.008.624 1.8 1.176 2.376 1.656.592.464 1.064 1 1.416 1.608.352.608.528 1.32.528 2.136 0 1.456-.48 2.584-1.44 3.384-.96.784-2.176 1.176-3.648 1.176-.768 0-1.4-.08-1.896-.24a6.852 6.852 0 01-1.392-.648c-.352-.224-.624-.336-.816-.336-.144 0-.256.088-.336.264-.08.16-.144.424-.192.792h-.552c.064-.88.096-2.8.096-5.76h.552c.112 1.616.512 2.928 1.2 3.936s1.744 1.512 3.168 1.512c.864 0 1.6-.264 2.208-.792.608-.544.912-1.344.912-2.4 0-.896-.304-1.656-.912-2.28-.592-.624-1.536-1.328-2.832-2.112-.944-.576-1.712-1.088-2.304-1.536a5.668 5.668 0 01-1.416-1.608c-.368-.64-.552-1.384-.552-2.232 0-1.344.432-2.368 1.296-3.072.864-.72 1.936-1.08 3.216-1.08zm23.498 3.144c-.576.032-1 .096-1.272.192a.864.864 0 00-.528.552c-.096.272-.144.712-.144 1.32v9.504c0 .608.048 1.048.144 1.32a.864.864 0 00.528.552c.272.096.696.16 1.272.192V18c-.672-.048-1.696-.072-3.072-.072-1.28 0-2.296.024-3.048.072v-.48c.576-.032.992-.096 1.248-.192a.863.863 0 00.552-.552c.096-.272.144-.712.144-1.32V10.68h-7.32v4.776c0 .608.048 1.048.144 1.32a.864.864 0 00.528.552c.272.096.696.16 1.272.192V18a49.675 49.675 0 00-3.048-.072c-1.376 0-2.4.024-3.072.072v-.48c.576-.032.992-.096 1.248-.192a.863.863 0 00.552-.552c.096-.272.144-.712.144-1.32V5.952c0-.608-.048-1.048-.144-1.32a.863.863 0 00-.552-.552c-.256-.096-.672-.16-1.248-.192v-.48c.672.048 1.696.072 3.072.072 1.28 0 2.296-.024 3.048-.072v.48c-.576.032-1 .096-1.272.192a.864.864 0 00-.528.552c-.096.272-.144.712-.144 1.32V10.2h7.32V5.952c0-.608-.048-1.048-.144-1.32a.863.863 0 00-.552-.552c-.256-.096-.672-.16-1.248-.192v-.48c.736.048 1.752.072 3.048.072 1.376 0 2.4-.024 3.072-.072v.48zm9.468-.816c1.472 0 2.76.296 3.864.888 1.12.576 1.984 1.432 2.592 2.568.608 1.12.912 2.464.912 4.032 0 1.536-.32 2.896-.96 4.08a6.839 6.839 0 01-2.616 2.736c-1.12.64-2.392.96-3.816.96-1.472 0-2.768-.288-3.888-.864a6.207 6.207 0 01-2.568-2.568c-.608-1.136-.912-2.488-.912-4.056 0-1.536.312-2.888.936-4.056.64-1.184 1.52-2.096 2.64-2.736 1.12-.656 2.392-.984 3.816-.984zm-.096.432c-.976 0-1.84.312-2.592.936-.736.608-1.304 1.464-1.704 2.568-.4 1.088-.6 2.336-.6 3.744 0 1.424.224 2.68.672 3.768.448 1.088 1.056 1.928 1.824 2.52a4.177 4.177 0 002.568.864c.976 0 1.832-.304 2.568-.912.752-.624 1.328-1.48 1.728-2.568.4-1.104.6-2.36.6-3.768 0-1.424-.224-2.68-.672-3.768-.448-1.088-1.056-1.92-1.824-2.496a4.104 4.104 0 00-2.568-.888zm13.702 8.592v3.36c0 .608.048 1.048.144 1.32a.864.864 0 00.528.552c.272.096.696.16 1.272.192V18a49.675 49.675 0 00-3.048-.072c-1.376 0-2.4.024-3.072.072v-.48c.576-.032.992-.096 1.248-.192a.863.863 0 00.552-.552c.096-.272.144-.712.144-1.32V5.952c0-.608-.048-1.048-.144-1.32a.863.863 0 00-.552-.552c-.256-.096-.672-.16-1.248-.192v-.48c.672.048 1.648.072 2.928.072l2.592-.024a19.83 19.83 0 011.032-.024c1.712 0 3.024.368 3.936 1.104.912.72 1.368 1.688 1.368 2.904 0 .768-.192 1.504-.576 2.208-.368.704-1.008 1.288-1.92 1.752-.896.464-2.088.696-3.576.696h-1.608zm1.776-8.208c-.496 0-.872.056-1.128.168-.24.112-.408.312-.504.6-.096.288-.144.72-.144 1.296v5.664h1.368c1.472 0 2.488-.352 3.048-1.056.576-.704.864-1.656.864-2.856 0-1.296-.272-2.256-.816-2.88-.544-.624-1.44-.936-2.688-.936z" fill="#121212"/></svg>