<svg width="20" height="14" fill="none" xmlns="http://www.w3.org/2000/svg"><path d="M18.95 10.302L10.586 5.74V5.4c0-.386.235-.746.612-.939.852-.434 1.358-1.269 1.32-2.18C12.47 1.05 11.407.05 10.099.001a2.59 2.59 0 00-1.846.662 2.289 2.289 0 00-.773 1.71c0 .305.263.552.586.552.324 0 .586-.247.586-.552 0-.348.147-.673.414-.915a1.38 1.38 0 01.988-.354c.7.025 1.268.56 1.295 1.219.02.488-.252.936-.707 1.168-.757.386-1.227 1.117-1.227 1.91v.34l-8.365 4.56C.402 10.656 0 11.313 0 12.018 0 13.11.945 14 2.106 14h15.788C19.055 14 20 13.11 20 12.018c0-.705-.402-1.362-1.05-1.716zm-1.056 2.595H2.106c-.515 0-.934-.395-.934-.88 0-.312.178-.603.466-.76L10 6.696l8.362 4.56a.874.874 0 01.466.762c0 .484-.419.879-.934.879z" fill="#121212"/></svg>