<svg width="22" height="22" fill="none" xmlns="http://www.w3.org/2000/svg"><path d="M11 .5C5.202.5.5 5.202.5 11c0 4.298 2.587 7.992 6.286 9.619-.028-.732-.005-1.613.183-2.41l1.35-5.723s-.338-.67-.338-1.66c0-1.556.9-2.718 2.025-2.718.957 0 1.416.717 1.416 1.575 0 .96-.614 2.395-.928 3.726-.263 1.116.558 2.02 1.66 2.02 1.987 0 3.327-2.554 3.327-5.582 0-2.302-1.551-4.022-4.368-4.022-3.183 0-5.17 2.377-5.17 5.03 0 .914.271 1.56.693 2.057.192.23.22.324.15.586-.052.193-.164.657-.216.844-.07.267-.286.361-.525.263-1.467-.6-2.151-2.203-2.151-4.013 0-2.981 2.517-6.558 7.504-6.558 4.008 0 6.647 2.902 6.647 6.014 0 4.12-2.292 7.196-5.667 7.196-1.134 0-2.198-.614-2.564-1.308 0 0-.61 2.419-.74 2.887-.22.811-.657 1.618-1.055 2.25.942.277 1.94.432 2.976.432 5.799 0 10.5-4.702 10.5-10.5C21.5 5.202 16.798.5 11 .5z" fill="rgba(255,255,255,0.8)"/></svg>